<?xml version="1.0" encoding="UTF-8" standalone="no"?>
<svg
   xmlns:dc="http://purl.org/dc/elements/1.1/"
   xmlns:cc="http://creativecommons.org/ns#"
   xmlns:rdf="http://www.w3.org/1999/02/22-rdf-syntax-ns#"
   xmlns:svg="http://www.w3.org/2000/svg"
   xmlns="http://www.w3.org/2000/svg"
   xmlns:sodipodi="http://sodipodi.sourceforge.net/DTD/sodipodi-0.dtd"
   xmlns:inkscape="http://www.inkscape.org/namespaces/inkscape"
   version="1.2"
   width="170px"
   height="165px"
   viewBox="0 0 170 165"
   preserveAspectRatio="none"
   id="svg2"
   inkscape:version="0.91 r13725"
   sodipodi:docname="fftue_logo.svg"
   inkscape:export-filename="C:\Users\hp\github\flyer\logo\fftue_logo.png"
   inkscape:export-xdpi="90"
   inkscape:export-ydpi="90">
  <metadata
     id="metadata50">
    <rdf:RDF>
      <cc:Work
         rdf:about="">
        <dc:format>image/svg+xml</dc:format>
        <dc:type
           rdf:resource="http://purl.org/dc/dcmitype/StillImage" />
        <dc:title />
      </cc:Work>
    </rdf:RDF>
  </metadata>
  <defs
     id="defs48" />
  <sodipodi:namedview
     pagecolor="#ffffff"
     bordercolor="#666666"
     borderopacity="1"
     objecttolerance="10"
     gridtolerance="10"
     guidetolerance="10"
     inkscape:pageopacity="0"
     inkscape:pageshadow="2"
     inkscape:window-width="1920"
     inkscape:window-height="1178"
     id="namedview46"
     showgrid="false"
     inkscape:zoom="3.6023672"
     inkscape:cx="101.99099"
     inkscape:cy="109.90973"
     inkscape:window-x="-8"
     inkscape:window-y="-8"
     inkscape:window-maximized="1"
     inkscape:current-layer="g20"
     showguides="true"
     inkscape:guide-bbox="true">
    <sodipodi:guide
       position="189.59755,91.328835"
       orientation="0,1"
       id="guide4827" />
  </sodipodi:namedview>
  <!-- Designed by Monic Meisel and hand-coded as SVG by Alina Friedrichsen -->
  <g
     id="g8">
    <circle
       cx="36"
       cy="54"
       r="22"
       transform="matrix(1.477616,0,0,1.5065066,-3.122124,-2.4350016)"
       fill="none"
       stroke="#de2c68"
       stroke-width="1.14544892"
       stroke-miterlimit="4"
       stroke-opacity="1"
       stroke-dasharray="none"
       id="circle10" />
    <circle
       cx="74"
       cy="44"
       r="22"
       transform="matrix(1.5950476,0,0,1.6223254,-10.072136,-9.1778182)"
       fill="none"
       stroke="#de2c68"
       stroke-width="1.06239557"
       stroke-miterlimit="4"
       stroke-opacity="1"
       stroke-dasharray="none"
       id="circle12" />
    <circle
       cx="74"
       cy="44"
       r="29"
       transform="matrix(1.5831269,0,0,1.5986441,-9.3397104,-8.1360194)"
       fill="none"
       stroke="#de2c68"
       stroke-width="5.81192684"
       stroke-miterlimit="4"
       stroke-opacity="1"
       stroke-dasharray="none"
       id="circle14" />
    <polygon
       points="31,44 26,44 30,48 22,48 22,52 30,52 26,56 31,56 37,50 "
       transform="matrix(1.4493674,0,0,1.3737988,-2.70016,2.5042672)"
       fill="#ffcc33"
       fill-opacity="1"
       id="polygon16" />
    <g
       style="font-style:normal;font-weight:normal;font-size:57.79345703px;line-height:125%;font-family:Sans;letter-spacing:0px;word-spacing:0px;fill:#000000;fill-opacity:1;stroke:none;stroke-width:1px;stroke-linecap:butt;stroke-linejoin:miter;stroke-opacity:1"
       id="text4814">
      <g
         id="g4823"
         transform="translate(6.9398811,-5.5519048)">
        <path
           inkscape:connector-curvature="0"
           id="path4819"
           style="font-style:italic;font-variant:normal;font-weight:bold;font-stretch:normal;font-family:Alegreya;-inkscape-font-specification:'Alegreya Bold Italic';fill:#ffcc33;fill-opacity:1"
           d="m 99.5468,69.34717 c -2.485123,2.485119 -3.698785,3.35202 -4.62348,3.35202 -0.982489,0 -1.32925,-0.635728 -1.15587,-1.907184 l 2.774086,-14.563951 0.693522,-0.404554 6.183902,0.05779 0.52014,-3.236433 -0.28897,-0.288967 -6.299485,0 c 0.924695,-4.218923 2.080565,-8.091084 2.080565,-8.091084 l -0.57794,-0.693522 -7.397558,2.022771 c 0,0 -0.404554,3.583194 -0.866902,6.704041 l -4.392302,0.693522 -0.346761,2.658499 0.17338,0.288967 3.583195,0.115587 0.404554,0.346761 -2.889673,17.164656 c -0.404554,3.583195 1.618217,5.779346 5.432585,5.779346 1.791597,0 5.374791,-3.294227 8.900192,-7.744323 l -0.9247,-2.080565 -0.98248,-0.17338 z" />
        <path
           sodipodi:nodetypes="cssccccccccccssccccssscccssssssssss"
           inkscape:connector-curvature="0"
           id="path4821"
           style="font-style:italic;font-variant:normal;font-weight:bold;font-stretch:normal;font-family:Alegreya;-inkscape-font-specification:'Alegreya Bold Italic';fill:#ffcc33;fill-opacity:1"
           d="m 120.38946,67.035432 c -0.52014,2.196151 -2.08056,8.842399 -2.08056,10.113855 0,1.444836 0.80911,2.196151 2.48512,2.196151 2.19615,0 4.45009,-1.67601 10.05606,-7.513149 l -0.9247,-2.022771 -0.98248,-0.115587 c -3.12085,2.658499 -3.35203,2.889673 -3.81437,2.889673 l -0.23118,-0.231174 c 1.38705,-9.131367 4.10334,-19.360808 4.10334,-19.360808 l -0.75132,-0.866902 -4.73906,-0.346761 -0.8669,0.462348 -0.80911,5.316998 c -3.58319,8.669018 -7.33977,14.737331 -9.13137,14.737331 -0.92469,0 -1.32925,-0.520141 -1.32925,-1.67601 0,-2.716293 4.97024,-17.742591 4.97024,-17.742591 l -0.69352,-0.924696 c 0,0 -8.38122,0.39746 -12.65794,0.39746 l -1.38762,3.507959 4.49219,0.09815 c 1.56006,0.03408 2.09801,0.504326 2.09801,1.891369 0,2.658499 -3.81436,12.772354 -3.81436,15.950994 0,3.352021 2.54291,5.490379 6.81962,5.490379 2.83188,-2.080565 5.72156,-6.126107 8.66902,-12.310007 z m 3.5254,-20.921232 c 2.54292,0 4.33451,-1.84939 4.33451,-4.392303 0,-1.791597 -1.04028,-3.005259 -3.00526,-3.005259 -2.54291,0 -4.3923,1.907184 -4.3923,4.392302 0,1.791598 1.04028,3.00526 3.06305,3.00526 z m -10.05606,0 c 2.54292,0 4.33451,-1.84939 4.33451,-4.392303 0,-1.791597 -0.98249,-3.005259 -2.94746,-3.005259 -2.54292,0 -4.39231,1.907184 -4.39231,4.392302 0,1.791598 1.04029,3.00526 3.00526,3.00526 z" />
      </g>
    </g>
  </g>
  <g
     transform="scale(1.1199445,0.89290136)"
     id="g20">
    <path
       d="m 10.718125,171.9993 4.662913,0 0,-24.09172 1.45716,0 0,-3.69147 -1.45716,0 0,-1.70002 c 0,-0.68001 0.09714,-1.36002 0.825724,-1.40859 l 0.631436,0 0,-3.69147 -2.622889,0 c -2.865745,0 -3.497184,1.45716 -3.497184,3.30289 l 0,3.49719 -1.4571606,0 0,3.69147 1.4571606,0 0,24.09172"
       fill="#000000"
       fill-opacity="1"
       id="path22" />
    <path
       d="m 18.148124,171.9993 4.662913,0 0,-22.44027 c 0,-0.77715 0.04857,-1.70002 1.214301,-1.70002 0.971439,0 1.020012,0.92287 1.020012,1.70002 l 0,9.18011 4.662913,0 0,-9.56869 c 0,-2.91431 0.09714,-5.29435 -3.594329,-5.29435 -1.262871,0 -2.525745,0.63144 -3.205753,1.94288 l -0.09714,0 0,-1.60287 -4.662913,0 0,27.78319"
       fill="#000000"
       fill-opacity="1"
       id="path24" />
    <path
       d="m 38.516493,161.0706 0,6.50865 c 0,1.26287 -0.437149,1.36001 -1.117157,1.36001 -0.680007,0 -1.117156,-0.0971 -1.117156,-1.36001 l 0,-8.84011 6.897226,0 0,-10.20012 c 0,-2.86575 -2.234316,-4.66292 -5.78007,-4.66292 -3.545753,0 -5.780069,1.79717 -5.780069,4.66292 l 0,19.13737 c 0,2.86574 2.234316,4.66291 5.780069,4.66291 3.545754,0 5.78007,-1.79717 5.78007,-4.66291 l 0,-6.60579 -4.662913,0 m 0,-5.58579 -2.234313,0 0,-6.84865 c 0,-1.26287 0.437149,-1.36002 1.117156,-1.36002 0.680008,0 1.117157,0.0971 1.117157,1.36002 l 0,6.84865"
       fill="#000000"
       fill-opacity="1"
       id="path26" />
    <path
       d="m 50.044758,171.9993 0,-27.78319 -4.662913,0 0,27.78319 4.662913,0 m 0,-34.58327 -4.662913,0 0,4.95434 4.662913,0 0,-4.95434"
       fill="#000000"
       fill-opacity="1"
       id="path28" />
    <path
       d="m 53.0289,171.9993 4.662913,0 0,-24.09172 1.457161,0 0,-3.69147 -1.457161,0 0,-1.70002 c 0,-0.68001 0.09714,-1.36002 0.825725,-1.40859 l 0.631436,0 0,-3.69147 -2.622889,0 c -2.865746,0 -3.497185,1.45716 -3.497185,3.30289 l 0,3.49719 -1.45716,0 0,3.69147 1.45716,0 0,24.09172"
       fill="#000000"
       fill-opacity="1"
       id="path30" />
    <path
       d="m 72.019036,144.21611 -4.662913,0 0,22.44027 c 0,0.77715 -0.04857,1.70002 -1.214301,1.70002 -0.971439,0 -1.020012,-0.92287 -1.020012,-1.70002 l 0,-22.44027 -4.662913,0 0,22.82884 c 0,2.91432 -0.09714,5.29435 3.594329,5.29435 1.262871,0 2.525745,-0.63144 3.205753,-1.94288 l 0.09714,0 0,1.60288 4.662913,0 0,-27.78319"
       fill="#000000"
       fill-opacity="1"
       id="path32" />
    <path
       d="m 73.930043,171.9993 4.662913,0 0,-22.44027 c 0,-0.77715 0.04857,-1.70002 1.2143,-1.70002 0.971439,0 1.020012,0.92287 1.020012,1.70002 l 0,22.44027 4.662913,0 0,-23.12028 c 0,-2.91432 -0.04858,-5.00292 -3.594328,-5.00292 -1.262871,0 -2.525746,0.63144 -3.205753,1.94288 l -0.09714,0 0,-1.60287 -4.662913,0 0,27.78319"
       fill="#000000"
       fill-opacity="1"
       id="path34" />
    <path
       d="m 92.161246,171.9993 0,-14.62018 0.194288,0 2.574316,14.62018 4.760057,0 -2.817176,-15.25161 2.67146,-12.53158 -4.662913,0 -2.525744,12.77444 -0.194288,0 0,-19.57452 -4.662913,0 0,34.58327 4.662913,0"
       fill="#000000"
       fill-opacity="1"
       id="path36" />
    <path
       d="m 106.36096,171.9993 0,-5.3915 -4.8572,0 0,5.3915 4.8572,0"
       fill="#000000"
       fill-opacity="1"
       id="path38" />
    <path
       d="m 108.93605,171.9993 4.66291,0 0,-22.44027 c 0,-0.77715 0.0486,-1.70002 1.2143,-1.70002 0.97144,0 1.02001,0.92287 1.02001,1.70002 l 0,22.44027 4.66292,0 0,-23.12028 c 0,-2.91432 -0.0486,-5.00292 -3.59433,-5.00292 -1.26287,0 -2.52575,0.63144 -3.20576,1.94288 l -0.0971,0 0,-1.60287 -4.66291,0 0,27.78319"
       fill="#000000"
       fill-opacity="1"
       id="path40" />
    <path
       d="m 129.30441,161.0706 0,6.50865 c 0,1.26287 -0.43715,1.36001 -1.11716,1.36001 -0.68,0 -1.11715,-0.0971 -1.11715,-1.36001 l 0,-8.84011 6.89722,0 0,-10.20012 c 0,-2.86575 -2.23431,-4.66292 -5.78007,-4.66292 -3.54575,0 -5.78006,1.79717 -5.78006,4.66292 l 0,19.13737 c 0,2.86574 2.23431,4.66291 5.78006,4.66291 3.54576,0 5.78007,-1.79717 5.78007,-4.66291 l 0,-6.60579 -4.66291,0 m 0,-5.58579 -2.23431,0 0,-6.84865 c 0,-1.26287 0.43715,-1.36002 1.11715,-1.36002 0.68001,0 1.11716,0.0971 1.11716,1.36002 l 0,6.84865"
       fill="#000000"
       fill-opacity="1"
       id="path42" />
    <path
       d="m 141.22125,139.21319 -4.66291,0 0,5.00292 -1.36002,0 0,3.69147 1.36002,0 0,20.40025 c 0,1.06858 0.63144,3.69147 3.49718,3.69147 l 2.67146,0 0,-3.69147 -0.48572,0 c -0.48572,0 -1.02001,-0.14572 -1.02001,-2.23432 l 0,-18.16593 1.50573,0 0,-3.69147 -1.50573,0 0,-5.00292"
       fill="#000000"
       fill-opacity="1"
       id="path44" />
  </g>
</svg>
